<svg xmlns="http://www.w3.org/2000/svg" width="22.414" height="23.25" viewBox="0 0 22.414 23.25">
  <g id="Group_17354" data-name="Group 17354" transform="translate(-191.762 -694.293)">
    <path id="bolt" d="M19.87,8.6A1,1,0,0,0,19,8H14.42l1.27-4.74A1,1,0,0,0,14.73,2h-7a1,1,0,0,0-1,.74l-2.68,10A1,1,0,0,0,5.02,14H8.89L7.08,20.74a1,1,0,0,0,1.71.93l10.9-12A1,1,0,0,0,19.87,8.6Z" transform="translate(190.985 695)" fill="none" stroke="#6462fb" stroke-linecap="round" stroke-linejoin="round" stroke-width="1"/>
    <line id="Line_1989" data-name="Line 1989" x1="21" y2="21" transform="translate(192.469 695)" fill="none" stroke="#6462fb" stroke-linecap="round" stroke-width="1"/>
  </g>
</svg>
