<svg xmlns="http://www.w3.org/2000/svg" width="17.506" height="22.501" viewBox="0 0 17.506 22.501">
  <g id="Group_19148" data-name="Group 19148" transform="translate(-178.494 -694.499)">
    <g id="Group_17353" data-name="Group 17353" transform="translate(5035 -3089)">
      <path id="bolt" d="M19.87,8.6A1,1,0,0,0,19,8H14.42l1.27-4.74A1,1,0,0,0,14.73,2h-7a1,1,0,0,0-1,.74l-2.68,10A1,1,0,0,0,5.02,14H8.89L7.08,20.74a1,1,0,0,0,1.71.93l10.9-12A1,1,0,0,0,19.87,8.6Z" transform="translate(-4860.015 3782)" fill="none" stroke="#6462fb" stroke-linecap="round" stroke-linejoin="round" stroke-width="1"/>
      <text id="A" transform="translate(-4844 3804)" fill="#6462fb" font-size="7" font-family="Poppins-Regular, Poppins" letter-spacing="-0.019em"><tspan x="0" y="0">A</tspan></text>
    </g>
  </g>
</svg>
