<svg xmlns="http://www.w3.org/2000/svg" width="28.829" height="28.823" viewBox="0 0 28.829 28.823">
  <g id="Group_19147" data-name="Group 19147" transform="translate(0.75 0.75)">
    <g id="Iconly_Light_Paper_Plus" data-name="Iconly/Light/Paper Plus" transform="translate(6.648)">
      <g id="Paper_Plus" data-name="Paper Plus" transform="translate(0 0)">
        <path id="Stroke_1" data-name="Stroke 1" d="M13.944,0H5.1A5.08,5.08,0,0,0,0,4.959V19.385a4.937,4.937,0,0,0,5.1,5.02H15.72a5.011,5.011,0,0,0,4.96-5.02V7.016Z" transform="translate(0 0.016)" fill="#fff" stroke="#6b58e9" stroke-linecap="round" stroke-linejoin="round" stroke-miterlimit="10" stroke-width="1.5"/>
        <path id="Stroke_3" data-name="Stroke 3" d="M0,0V3.868A3.424,3.424,0,0,0,3.416,7.292c1.75,0,3.541.005,3.662,0" transform="translate(13.594)" fill="none" stroke="#6b58e9" stroke-linecap="round" stroke-linejoin="round" stroke-miterlimit="10" stroke-width="1.5"/>
      </g>
    </g>
    <g id="Iconly_Light_Paper_Plus-2" data-name="Iconly/Light/Paper Plus" transform="translate(0 2.902)">
      <g id="Paper_Plus-2" data-name="Paper Plus" transform="translate(0 0)">
        <path id="Stroke_1-2" data-name="Stroke 1" d="M13.944,0H5.1A5.08,5.08,0,0,0,0,4.959V19.385a4.937,4.937,0,0,0,5.1,5.02H15.72a5.011,5.011,0,0,0,4.96-5.02V7.016Z" transform="translate(0 0.016)" fill="#fff" stroke="#6b58e9" stroke-linecap="round" stroke-linejoin="round" stroke-miterlimit="10" stroke-width="1.5"/>
        <path id="Stroke_3-2" data-name="Stroke 3" d="M0,0V3.868A3.424,3.424,0,0,0,3.416,7.292c1.75,0,3.541.005,3.662,0" transform="translate(13.594)" fill="#fff" stroke="#6b58e9" stroke-linecap="round" stroke-linejoin="round" stroke-miterlimit="10" stroke-width="1.5"/>
        <path id="Stroke_5" data-name="Stroke 5" d="M6.517.5H0" transform="translate(6.839 13.016)" fill="#fff" stroke="#6b58e9" stroke-linecap="round" stroke-linejoin="round" stroke-miterlimit="10" stroke-width="1.5"/>
        <path id="Stroke_7" data-name="Stroke 7" d="M.5,6.517V0" transform="translate(9.597 10.258)" fill="#fff" stroke="#6b58e9" stroke-linecap="round" stroke-linejoin="round" stroke-miterlimit="10" stroke-width="1.5"/>
      </g>
    </g>
  </g>
</svg>
