<svg xmlns="http://www.w3.org/2000/svg" width="22.445" height="23.675" viewBox="0 0 22.445 23.675">
  <g id="Group_17663" data-name="Group 17663" transform="translate(-12590.059 -3331.155)">
    <path id="Home" d="M15,22.047h2.121a3.809,3.809,0,0,0,3.828-3.79h0V8.64a2.689,2.689,0,0,0-1.06-2.1L12.631.755a3.506,3.506,0,0,0-4.348,0L1.06,6.551A2.668,2.668,0,0,0,0,8.651v9.607a3.809,3.809,0,0,0,3.828,3.79H15Z" transform="translate(12590.809 3332.033)" fill="none" stroke="#7250f2" stroke-linecap="round" stroke-linejoin="round" stroke-miterlimit="10" stroke-width="1.5"/>
    <g id="Ellipse_1304" data-name="Ellipse 1304" transform="translate(12598 3337)" fill="none" stroke="#7250f2" stroke-width="1">
      <circle cx="3.5" cy="3.5" r="3.5" stroke="none"/>
      <circle cx="3.5" cy="3.5" r="3" fill="none"/>
    </g>
  </g>
</svg>
