<svg id="Group_17755" data-name="Group 17755" xmlns="http://www.w3.org/2000/svg" width="25.422" height="25.413" viewBox="0 0 25.422 25.413">
  <rect id="Rectangle_802" data-name="Rectangle 802" width="3.439" height="9.554" transform="translate(1.683 8.061)"/>
  <rect id="Rectangle_803" data-name="Rectangle 803" width="3.439" height="12.375" transform="translate(14.231 8.061)"/>
  <rect id="Rectangle_804" data-name="Rectangle 804" width="9.527" height="3.44" transform="translate(14.231 8.061)"/>
  <rect id="Rectangle_805" data-name="Rectangle 805" width="6.336" height="3.44" transform="translate(14.231 14.176)"/>
  <rect id="Rectangle_806" data-name="Rectangle 806" width="3.44" height="3.439" transform="translate(7.894 11.118)"/>
  <rect id="Rectangle_807" data-name="Rectangle 807" width="3.439" height="3.44" transform="translate(1.683 20.29)"/>
  <path id="Path_2425" data-name="Path 2425" d="M.785.785H6.021V6.021H.785ZM0,0V6.805H6.806V0Z"/>
  <rect id="Rectangle_808" data-name="Rectangle 808" width="2.951" height="2.951" transform="translate(1.927 1.927)"/>
  <path id="Path_2426" data-name="Path 2426" d="M48.237.936h5.237V6.172H48.237ZM53.473.151H47.452V6.956h6.806V.151Z" transform="translate(-28.836 -0.092)"/>
  <rect id="Rectangle_809" data-name="Rectangle 809" width="2.951" height="2.951" transform="translate(20.543 1.987)"/>
  <path id="Path_2427" data-name="Path 2427" d="M48.237,48.217h5.237v5.236H48.237Zm5.237-.785H47.452v6.805h6.806V47.432Z" transform="translate(-28.836 -28.824)"/>
  <rect id="Rectangle_810" data-name="Rectangle 810" width="2.951" height="2.951" transform="translate(20.543 20.535)"/>
  <rect id="Rectangle_811" data-name="Rectangle 811" width="5.366" height="3.44" transform="translate(10.577 17.39)"/>
  <rect id="Rectangle_812" data-name="Rectangle 812" width="9.108" height="3.44" transform="translate(5.122 4.872)"/>
  <rect id="Rectangle_813" data-name="Rectangle 813" width="3.44" height="6.09" transform="translate(7.894 17.391)"/>
  <rect id="Rectangle_814" data-name="Rectangle 814" width="4.211" height="3.44" transform="translate(14.231 20.29)"/>
</svg>
