<svg xmlns="http://www.w3.org/2000/svg" width="31" height="28" viewBox="0 0 31 28">
  <g id="Icon_material-details" data-name="Icon material-details" transform="translate(-2.5 -4)" fill="none" stroke-linecap="round" stroke-linejoin="round">
    <path d="M4.5,6,18,30,31.5,6Z" stroke="none"/>
    <path d="M 4.5 6 L 18 30 L 31.5 6 L 4.5 6 M 4.5 4 L 31.5 4 C 32.21052932739258 4 32.86771011352539 4.376970291137695 33.22642135620117 4.990310668945312 C 33.58512878417969 5.603639602661133 33.59149932861328 6.361240386962891 33.24314880371094 6.980520248413086 L 19.74315071105957 30.98052024841309 C 19.3889102935791 31.61027908325195 18.72254943847656 32 18 32 C 17.27745056152344 32 16.6110897064209 31.61027908325195 16.25684928894043 30.98052024841309 L 2.756851196289062 6.980520248413086 C 2.408500671386719 6.361240386962891 2.414871215820312 5.603639602661133 2.773578643798828 4.990310668945312 C 3.132289886474609 4.376970291137695 3.789470672607422 4 4.5 4 Z" stroke="none" fill="#7250f2"/>
  </g>
</svg>
