<svg xmlns="http://www.w3.org/2000/svg" width="4.974" height="24" viewBox="0 0 4.974 24">
  <g id="Group_16758" data-name="Group 16758" transform="translate(262.681 -182.323) rotate(90)">
    <path id="Fill_3" data-name="Fill 3" d="M2.532,4.974A2.512,2.512,0,0,1,0,2.488,2.513,2.513,0,0,1,2.532,0,2.513,2.513,0,0,1,5.065,2.488,2.512,2.512,0,0,1,2.532,4.974" transform="translate(182.323 257.707)" fill="#666"/>
    <path id="Fill_5" data-name="Fill 5" d="M2.532,4.974A2.512,2.512,0,0,1,0,2.488,2.513,2.513,0,0,1,2.532,0,2.513,2.513,0,0,1,5.065,2.488,2.512,2.512,0,0,1,2.532,4.974" transform="translate(191.791 257.707)" fill="#666"/>
    <path id="Fill_7" data-name="Fill 7" d="M2.532,4.974A2.512,2.512,0,0,1,0,2.488,2.513,2.513,0,0,1,2.532,0,2.513,2.513,0,0,1,5.065,2.488,2.512,2.512,0,0,1,2.532,4.974" transform="translate(201.259 257.707)" fill="#666"/>
  </g>
</svg>
