<svg xmlns="http://www.w3.org/2000/svg" xmlns:xlink="http://www.w3.org/1999/xlink" width="161" height="154.001" viewBox="0 0 161 154.001">
  <defs>
    <filter id="Rectangle_" x="87" y="-76.999" width="161" height="154" filterUnits="userSpaceOnUse">
      <feOffset dy="3" input="SourceAlpha"/>
      <feGaussianBlur stdDeviation="3" result="blur"/>
      <feFlood flood-opacity="0.071"/>
      <feComposite operator="in" in2="blur"/>
      <feComposite in="SourceGraphic"/>
    </filter>
    <filter id="Rectangle_2" x="-56" y="61.001" width="161" height="154" filterUnits="userSpaceOnUse">
      <feOffset dy="3" input="SourceAlpha"/>
      <feGaussianBlur stdDeviation="3" result="blur-2"/>
      <feFlood flood-opacity="0.071"/>
      <feComposite operator="in" in2="blur-2"/>
      <feComposite in="SourceGraphic"/>
    </filter>
    <linearGradient id="linear-gradient" x1="0.17" y1="0.042" x2="1.075" y2="1.195" gradientUnits="objectBoundingBox">
      <stop offset="0" stop-color="#f7c544"/>
      <stop offset="1" stop-color="#ffefc7"/>
    </linearGradient>
    <filter id="Rectangle_3" x="0" y="0.001" width="161" height="154" filterUnits="userSpaceOnUse">
      <feOffset dy="3" input="SourceAlpha"/>
      <feGaussianBlur stdDeviation="3" result="blur-3"/>
      <feFlood flood-opacity="0.071"/>
      <feComposite operator="in" in2="blur-3"/>
      <feComposite in="SourceGraphic"/>
    </filter>
    <filter id="Union_4" x="0" y="0" width="161" height="154" filterUnits="userSpaceOnUse">
      <feOffset dy="3" input="SourceAlpha"/>
      <feGaussianBlur stdDeviation="3" result="blur-4"/>
      <feFlood flood-opacity="0.071"/>
      <feComposite operator="in" in2="blur-4"/>
      <feComposite in="SourceGraphic"/>
    </filter>
  </defs>
  <g id="Group_19153" data-name="Group 19153" transform="translate(1734 -2374.999)">
    <g id="Group_19140" data-name="Group 19140" transform="translate(58 64)">
      <g transform="matrix(1, 0, 0, 1, -1792, 2311)" filter="url(#Rectangle_3)">
        <path id="Rectangle_4" data-name="Rectangle " d="M30,0h83a30,30,0,0,1,30,30v76a30,30,0,0,1-30,30H30A30,30,0,0,1,0,106V30A30,30,0,0,1,30,0Z" transform="translate(9 6)" opacity="0.8" fill="url(#linear-gradient)"/>
      </g>
      <g transform="matrix(1, 0, 0, 1, -1792, 2311)" filter="url(#Union_4)">
        <path id="Union_4-2" data-name="Union 4" d="M86,213a30,30,0,0,1-30-30V138h57a30,30,0,0,1,30,30v45Zm87-77a30,30,0,0,1-30-30V77h26a30,30,0,0,1,30,30v29Z" transform="translate(-47 -71)" fill="#f7c544" opacity="0.8"/>
      </g>
    </g>
    <path id="Path" d="M16.6,0s-2.478,3.4-5.035,3.4S6.366,0,6.366,0C5.182,0-4.73,3.821-5.847,4.692c-.928.7.217,6.623,3.249,8.889,1.329.988,5.117-.807,5.1-.667v8.38c0,4.678.29,7.291,3.866,7.291H16.6c6.27,0,5.8-2.613,5.8-7.291v-8.38c0-.542,2.355,1.8,3.7.667,2.542-2.148,5.881-7.715,5.253-8.889C30.809,3.665,17.326,0,16.6,0Z" transform="translate(-1621.34 2395.25)" fill="#fff" stroke="#fff" stroke-linecap="round" stroke-linejoin="round" stroke-miterlimit="10" stroke-width="1.5"/>
  </g>
</svg>
