<svg xmlns="http://www.w3.org/2000/svg" xmlns:xlink="http://www.w3.org/1999/xlink" width="161" height="154.001" viewBox="0 0 161 154.001">
  <defs>
    <filter id="Rectangle_" x="87" y="-76.999" width="161" height="154" filterUnits="userSpaceOnUse">
      <feOffset dy="3" input="SourceAlpha"/>
      <feGaussianBlur stdDeviation="3" result="blur"/>
      <feFlood flood-opacity="0.071"/>
      <feComposite operator="in" in2="blur"/>
      <feComposite in="SourceGraphic"/>
    </filter>
    <filter id="Rectangle_2" x="-56" y="61.001" width="161" height="154" filterUnits="userSpaceOnUse">
      <feOffset dy="3" input="SourceAlpha"/>
      <feGaussianBlur stdDeviation="3" result="blur-2"/>
      <feFlood flood-opacity="0.071"/>
      <feComposite operator="in" in2="blur-2"/>
      <feComposite in="SourceGraphic"/>
    </filter>
    <linearGradient id="linear-gradient" x1="0.156" y1="0.076" x2="0.873" y2="1" gradientUnits="objectBoundingBox">
      <stop offset="0" stop-color="#ec8987"/>
      <stop offset="1" stop-color="#f7b4b3"/>
    </linearGradient>
    <filter id="Rectangle_3" x="0" y="0.001" width="161" height="154" filterUnits="userSpaceOnUse">
      <feOffset dy="3" input="SourceAlpha"/>
      <feGaussianBlur stdDeviation="3" result="blur-3"/>
      <feFlood flood-opacity="0.071"/>
      <feComposite operator="in" in2="blur-3"/>
      <feComposite in="SourceGraphic"/>
    </filter>
    <filter id="Union_6" x="0" y="0" width="161" height="154" filterUnits="userSpaceOnUse">
      <feOffset dy="3" input="SourceAlpha"/>
      <feGaussianBlur stdDeviation="3" result="blur-4"/>
      <feFlood flood-opacity="0.071"/>
      <feComposite operator="in" in2="blur-4"/>
      <feComposite in="SourceGraphic"/>
    </filter>
  </defs>
  <g id="Group_19155" data-name="Group 19155" transform="translate(1500 -2610.999)">
    <g id="Group_19141" data-name="Group 19141" transform="translate(164 -81)">
      <g transform="matrix(1, 0, 0, 1, -1664, 2692)" filter="url(#Rectangle_3)">
        <rect id="Rectangle_4" data-name="Rectangle " width="143" height="136" rx="30" transform="translate(9 6)" opacity="0.8" fill="url(#linear-gradient)"/>
      </g>
      <g transform="matrix(1, 0, 0, 1, -1664, 2692)" filter="url(#Union_6)">
        <path id="Union_6-2" data-name="Union 6" d="M86,213a30,30,0,0,1-30-30V138h57a30,30,0,0,1,30,30v45Zm87-77a30,30,0,0,1-30-30V77h26a30,30,0,0,1,30,30v29Z" transform="translate(-47 -71)" fill="#ec8987" opacity="0.8"/>
      </g>
    </g>
    <g id="Iconly_Light_Document" data-name="Iconly/Light/Document" transform="translate(-1386.243 2631.644)">
      <g id="Document" transform="translate(0 0)">
        <path id="Stroke_4" data-name="Stroke 4" d="M18.594,0,6.835.006C2.614.032,0,2.809,0,7.046V21.109c0,4.258,2.634,7.046,6.891,7.046l11.759,0c4.221-.026,6.836-2.8,6.836-7.041V7.046C25.486,2.788,22.851,0,18.594,0Z" transform="translate(0 0)" fill="#fff"/>
        <path id="Stroke_1" data-name="Stroke 1" d="M11.042.5H0" transform="translate(7.258 20.106)" fill="none" stroke="#eb8c8b" stroke-linecap="round" stroke-linejoin="round" stroke-miterlimit="10" stroke-width="1.5"/>
        <path id="Stroke_2" data-name="Stroke 2" d="M11.042.5H0" transform="translate(7.258 13.703)" fill="none" stroke="#eb8c8b" stroke-linecap="round" stroke-linejoin="round" stroke-miterlimit="10" stroke-width="1.5"/>
        <path id="Stroke_3" data-name="Stroke 3" d="M4.213.5H0" transform="translate(7.258 7.315)" fill="none" stroke="#eb8c8b" stroke-linecap="round" stroke-linejoin="round" stroke-miterlimit="10" stroke-width="1.5"/>
      </g>
    </g>
  </g>
</svg>
