<svg xmlns="http://www.w3.org/2000/svg" xmlns:xlink="http://www.w3.org/1999/xlink" width="161" height="154.001" viewBox="0 0 161 154.001">
  <defs>
    <filter id="Rectangle_" x="87" y="-76.999" width="161" height="154" filterUnits="userSpaceOnUse">
      <feOffset dy="3" input="SourceAlpha"/>
      <feGaussianBlur stdDeviation="3" result="blur"/>
      <feFlood flood-opacity="0.071"/>
      <feComposite operator="in" in2="blur"/>
      <feComposite in="SourceGraphic"/>
    </filter>
    <filter id="Rectangle_2" x="-56" y="61.001" width="161" height="154" filterUnits="userSpaceOnUse">
      <feOffset dy="3" input="SourceAlpha"/>
      <feGaussianBlur stdDeviation="3" result="blur-2"/>
      <feFlood flood-opacity="0.071"/>
      <feComposite operator="in" in2="blur-2"/>
      <feComposite in="SourceGraphic"/>
    </filter>
    <linearGradient id="linear-gradient" x1="0.351" y1="0.222" x2="0.891" y2="1" gradientUnits="objectBoundingBox">
      <stop offset="0" stop-color="#cff5d5"/>
      <stop offset="1" stop-color="#edfff0"/>
    </linearGradient>
    <filter id="Rectangle_3" x="0" y="0.001" width="161" height="154" filterUnits="userSpaceOnUse">
      <feOffset dy="3" input="SourceAlpha"/>
      <feGaussianBlur stdDeviation="3" result="blur-3"/>
      <feFlood flood-opacity="0.071"/>
      <feComposite operator="in" in2="blur-3"/>
      <feComposite in="SourceGraphic"/>
    </filter>
    <filter id="Union_1" x="0" y="0" width="161" height="154" filterUnits="userSpaceOnUse">
      <feOffset dy="3" input="SourceAlpha"/>
      <feGaussianBlur stdDeviation="3" result="blur-4"/>
      <feFlood flood-opacity="0.071"/>
      <feComposite operator="in" in2="blur-4"/>
      <feComposite in="SourceGraphic"/>
    </filter>
  </defs>
  <g id="Group_19150" data-name="Group 19150" transform="translate(2057 -1880.999)">
    <g id="Group_19137" data-name="Group 19137" transform="translate(-294 -18)">
      <g transform="matrix(1, 0, 0, 1, -1763, 1899)" filter="url(#Rectangle_3)">
        <rect id="Rectangle_4" data-name="Rectangle " width="143" height="136" rx="30" transform="translate(9 6)" opacity="0.8" fill="url(#linear-gradient)"/>
      </g>
      <g transform="matrix(1, 0, 0, 1, -1763, 1899)" filter="url(#Union_1)">
        <path id="Union_1-2" data-name="Union 1" d="M86,213a30,30,0,0,1-30-30V138h57a30,30,0,0,1,30,30v45Zm87-77a30,30,0,0,1-30-30V77h26a30,30,0,0,1,30,30v29Z" transform="translate(-47 -71)" fill="#a7dbaf" opacity="0.8"/>
      </g>
    </g>
    <g id="Iconly_Light_Bag_2" data-name="Iconly/Light/Bag 2" transform="translate(-1946.804 1898.271)">
      <g id="Bag_2" data-name="Bag 2" transform="translate(0 0)">
        <path id="Stroke_1" data-name="Stroke 1" d="M12.858,11.571V6.416A6.429,6.429,0,0,0,0,6.387v5.185" transform="translate(8.861 0)" fill="none" stroke="#feffff" stroke-linecap="round" stroke-linejoin="round" stroke-miterlimit="10" stroke-width="1.5"/>
        <path id="Stroke_3" data-name="Stroke 3" d="M23.367,23.85H7.24A7.237,7.237,0,0,1,0,16.615V7.235A7.237,7.237,0,0,1,7.24,0H23.367a7.237,7.237,0,0,1,7.24,7.235v9.379A7.237,7.237,0,0,1,23.367,23.85Z" transform="translate(0 7.608)" fill="#fff"/>
      </g>
    </g>
  </g>
</svg>
