<svg xmlns="http://www.w3.org/2000/svg" xmlns:xlink="http://www.w3.org/1999/xlink" width="161" height="154.001" viewBox="0 0 161 154.001">
  <defs>
    <filter id="Rectangle_" x="87" y="-76.999" width="161" height="154" filterUnits="userSpaceOnUse">
      <feOffset dy="3" input="SourceAlpha"/>
      <feGaussianBlur stdDeviation="3" result="blur"/>
      <feFlood flood-opacity="0.071"/>
      <feComposite operator="in" in2="blur"/>
      <feComposite in="SourceGraphic"/>
    </filter>
    <filter id="Rectangle_2" x="-56" y="61.001" width="161" height="154" filterUnits="userSpaceOnUse">
      <feOffset dy="3" input="SourceAlpha"/>
      <feGaussianBlur stdDeviation="3" result="blur-2"/>
      <feFlood flood-opacity="0.071"/>
      <feComposite operator="in" in2="blur-2"/>
      <feComposite in="SourceGraphic"/>
    </filter>
    <linearGradient id="linear-gradient" x1="0.206" y1="0.091" x2="0.873" y2="0.943" gradientUnits="objectBoundingBox">
      <stop offset="0" stop-color="#f8c5c3"/>
      <stop offset="1" stop-color="#ffe2e2"/>
    </linearGradient>
    <filter id="Rectangle_3" x="0" y="0.001" width="161" height="154" filterUnits="userSpaceOnUse">
      <feOffset dy="3" input="SourceAlpha"/>
      <feGaussianBlur stdDeviation="3" result="blur-3"/>
      <feFlood flood-opacity="0.071"/>
      <feComposite operator="in" in2="blur-3"/>
      <feComposite in="SourceGraphic"/>
    </filter>
    <filter id="Union_7" x="0" y="0" width="161" height="154" filterUnits="userSpaceOnUse">
      <feOffset dy="3" input="SourceAlpha"/>
      <feGaussianBlur stdDeviation="3" result="blur-4"/>
      <feFlood flood-opacity="0.071"/>
      <feComposite operator="in" in2="blur-4"/>
      <feComposite in="SourceGraphic"/>
    </filter>
  </defs>
  <g id="Group_19154" data-name="Group 19154" transform="translate(1180 -2442.999)">
    <g id="Group_19142" data-name="Group 19142" transform="translate(207 -100)">
      <g transform="matrix(1, 0, 0, 1, -1387, 2543)" filter="url(#Rectangle_3)">
        <path id="Rectangle_4" data-name="Rectangle " d="M30,0h83a30,30,0,0,1,30,30v76a30,30,0,0,1-30,30H30A30,30,0,0,1,0,106V30A30,30,0,0,1,30,0Z" transform="translate(9 6)" opacity="0.8" fill="url(#linear-gradient)"/>
      </g>
      <g transform="matrix(1, 0, 0, 1, -1387, 2543)" filter="url(#Union_7)">
        <path id="Union_7-2" data-name="Union 7" d="M86,213a30,30,0,0,1-30-30V138h57a30,30,0,0,1,30,30v45Zm87-77a30,30,0,0,1-30-30V77h26a30,30,0,0,1,30,30v29Z" transform="translate(-47 -71)" fill="#fabbb8" opacity="0.8"/>
      </g>
    </g>
    <path id="Icon_metro-tools" data-name="Icon metro-tools" d="M31.117,9.855a6.577,6.577,0,0,1-9.323,8.251l-1.819,1.987,1.3,1.3.776-.776a1.014,1.014,0,0,1,1.436,0l6.291,6.355a1.014,1.014,0,0,1,0,1.436L26.9,31.284a1.014,1.014,0,0,1-1.436,0l-6.291-6.355a1.014,1.014,0,0,1,0-1.436l.709-.709-1.237-1.24-8.7,9.5a2.03,2.03,0,0,1-2.871,0l-.718-.718a2.03,2.03,0,0,1,0-2.871l9.911-8.3-6.583-6.6H7.608L5.2,8.689,7.139,6.749,11.1,9.171l.026,2.036,6.659,6.685,1.937-1.622a6.584,6.584,0,0,1,7.8-10L23.252,10.48l3.59,3.59,4.274-4.215ZM8.74,28.472a1.016,1.016,0,1,0,0,1.437A1.016,1.016,0,0,0,8.74,28.472Z" transform="translate(-1071.411 2457.702)" fill="#fff"/>
  </g>
</svg>
