<svg xmlns="http://www.w3.org/2000/svg" xmlns:xlink="http://www.w3.org/1999/xlink" width="161" height="154.001" viewBox="0 0 161 154.001">
  <defs>
    <filter id="Rectangle_" x="87" y="-76.999" width="161" height="154" filterUnits="userSpaceOnUse">
      <feOffset dy="3" input="SourceAlpha"/>
      <feGaussianBlur stdDeviation="3" result="blur"/>
      <feFlood flood-opacity="0.071"/>
      <feComposite operator="in" in2="blur"/>
      <feComposite in="SourceGraphic"/>
    </filter>
    <filter id="Rectangle_2" x="-56" y="61.001" width="172" height="154" filterUnits="userSpaceOnUse">
      <feOffset dy="3" input="SourceAlpha"/>
      <feGaussianBlur stdDeviation="3" result="blur-2"/>
      <feFlood flood-opacity="0.071"/>
      <feComposite operator="in" in2="blur-2"/>
      <feComposite in="SourceGraphic"/>
    </filter>
    <linearGradient id="linear-gradient" x1="0.147" y1="0.059" x2="1.112" y2="1.132" gradientUnits="objectBoundingBox">
      <stop offset="0" stop-color="#886def"/>
      <stop offset="1" stop-color="#d1c6fd"/>
    </linearGradient>
    <filter id="Rectangle_3" x="0" y="0.001" width="161" height="154" filterUnits="userSpaceOnUse">
      <feOffset dy="3" input="SourceAlpha"/>
      <feGaussianBlur stdDeviation="3" result="blur-3"/>
      <feFlood flood-opacity="0.071"/>
      <feComposite operator="in" in2="blur-3"/>
      <feComposite in="SourceGraphic"/>
    </filter>
    <filter id="Union_2" x="0" y="0" width="161" height="154" filterUnits="userSpaceOnUse">
      <feOffset dy="3" input="SourceAlpha"/>
      <feGaussianBlur stdDeviation="3" result="blur-4"/>
      <feFlood flood-opacity="0.071"/>
      <feComposite operator="in" in2="blur-4"/>
      <feComposite in="SourceGraphic"/>
    </filter>
  </defs>
  <g id="Group_19149" data-name="Group 19149" transform="translate(1419 -1912.999)">
    <g id="Group_19136" data-name="Group 19136" transform="translate(87 -104)">
      <g transform="matrix(1, 0, 0, 1, -1506, 2017)" filter="url(#Rectangle_3)">
        <path id="Rectangle_4" data-name="Rectangle " d="M30,0h83a30,30,0,0,1,30,30v76a30,30,0,0,1-30,30H30A30,30,0,0,1,0,106V30A30,30,0,0,1,30,0Z" transform="translate(9 6)" opacity="0.8" fill="url(#linear-gradient)"/>
      </g>
      <g transform="matrix(1, 0, 0, 1, -1506, 2017)" filter="url(#Union_2)">
        <path id="Union_2-2" data-name="Union 2" d="M86,213a30,30,0,0,1-30-30V138h68a30,30,0,0,1,30,30v45Zm87-77a30,30,0,0,1-30-30V77h26a30,30,0,0,1,30,30v29Z" transform="translate(-47 -71)" fill="#886def" opacity="0.8"/>
      </g>
    </g>
    <g id="Group_18985" data-name="Group 18985" transform="translate(-1313.366 1933.49)">
      <g id="Group_18858" data-name="Group 18858" transform="translate(6.787 0)">
        <path id="Path" d="M21.669,0H7.841C3.021,0,0,3.411,0,8.241V21.269C0,26.1,3.007,29.51,7.841,29.51H21.669c4.834,0,7.841-3.411,7.841-8.241V8.241C29.51,3.411,26.5,0,21.669,0Z" transform="translate(0 0)" fill="#fff"/>
        <g id="Group_18856" data-name="Group 18856" transform="translate(4.051 8.884)">
          <path id="Path-2" data-name="Path" d="M15.98,0H5.783C2.228,0,0,1.6,0,3.861v6.1c0,2.262,2.218,3.861,5.783,3.861h10.2c3.565,0,5.783-1.6,5.783-3.861v-6.1C21.763,1.6,19.545,0,15.98,0Z" fill="#fff" stroke="#7250f2" stroke-linecap="round" stroke-linejoin="round" stroke-miterlimit="10" stroke-width="1.25"/>
          <g id="Group_18855" data-name="Group 18855" transform="translate(4.072 4.072)">
            <ellipse id="Ellipse_740" cx="2.678" cy="2.678" rx="2.678" ry="2.678" transform="translate(9.793 0)" fill="none" stroke="#7250f2" stroke-linecap="round" stroke-linejoin="round" stroke-miterlimit="10" stroke-width="1.25"/>
            <ellipse id="Ellipse_740-2" data-name="Ellipse_740" cx="2.678" cy="2.678" rx="2.678" ry="2.678" transform="translate(0 0)" fill="none" stroke="#7250f2" stroke-linecap="round" stroke-linejoin="round" stroke-miterlimit="10" stroke-width="1.25"/>
          </g>
        </g>
      </g>
      <path id="Path-3" data-name="Path" d="M3.269,0H1.183C.456,0,0,1.237,0,2.988V7.713C0,9.464.454,10.7,1.183,10.7H3.269C4,10.7,4.452,9.464,4.452,7.713V2.988C4.452,1.237,4,0,3.269,0Z" transform="translate(38.914 9.502)" fill="#fff"/>
      <path id="Path-4" data-name="Path" d="M1.183,0H3.269C4,0,4.451,1.237,4.451,2.988V7.713C4.451,9.464,4,10.7,3.269,10.7H1.183C.454,10.7,0,9.464,0,7.713V2.988C0,1.237.454,0,1.183,0Z" transform="translate(0 9.502)" fill="#fff"/>
    </g>
  </g>
</svg>
