<svg xmlns="http://www.w3.org/2000/svg" xmlns:xlink="http://www.w3.org/1999/xlink" width="161" height="154.001" viewBox="0 0 161 154.001">
  <defs>
    <filter id="Rectangle_" x="87" y="-76.999" width="161" height="154" filterUnits="userSpaceOnUse">
      <feOffset dy="3" input="SourceAlpha"/>
      <feGaussianBlur stdDeviation="3" result="blur"/>
      <feFlood flood-opacity="0.071"/>
      <feComposite operator="in" in2="blur"/>
      <feComposite in="SourceGraphic"/>
    </filter>
    <filter id="Rectangle_2" x="-56" y="61.001" width="161" height="154" filterUnits="userSpaceOnUse">
      <feOffset dy="3" input="SourceAlpha"/>
      <feGaussianBlur stdDeviation="3" result="blur-2"/>
      <feFlood flood-opacity="0.071"/>
      <feComposite operator="in" in2="blur-2"/>
      <feComposite in="SourceGraphic"/>
    </filter>
    <linearGradient id="linear-gradient" x1="0.14" y1="0.074" x2="1.06" y2="1.121" gradientUnits="objectBoundingBox">
      <stop offset="0" stop-color="#c5b8f9"/>
      <stop offset="1" stop-color="#e7e0ff"/>
    </linearGradient>
    <filter id="Rectangle_3" x="0" y="0.001" width="161" height="154" filterUnits="userSpaceOnUse">
      <feOffset dy="3" input="SourceAlpha"/>
      <feGaussianBlur stdDeviation="3" result="blur-3"/>
      <feFlood flood-opacity="0.071"/>
      <feComposite operator="in" in2="blur-3"/>
      <feComposite in="SourceGraphic"/>
    </filter>
    <filter id="Union_3" x="0" y="0" width="161" height="154" filterUnits="userSpaceOnUse">
      <feOffset dy="3" input="SourceAlpha"/>
      <feGaussianBlur stdDeviation="3" result="blur-4"/>
      <feFlood flood-opacity="0.071"/>
      <feComposite operator="in" in2="blur-4"/>
      <feComposite in="SourceGraphic"/>
    </filter>
  </defs>
  <g id="Group_19152" data-name="Group 19152" transform="translate(2012 -2132.999)">
    <g id="Group_19139" data-name="Group 19139" transform="translate(-170)">
      <g transform="matrix(1, 0, 0, 1, -1842, 2133)" filter="url(#Rectangle_3)">
        <rect id="Rectangle_4" data-name="Rectangle " width="143" height="136" rx="30" transform="translate(9 6)" opacity="0.8" fill="url(#linear-gradient)"/>
      </g>
      <g id="Group_19138" data-name="Group 19138">
        <g transform="matrix(1, 0, 0, 1, -1842, 2133)" filter="url(#Union_3)">
          <path id="Union_3-2" data-name="Union 3" d="M86,213a30,30,0,0,1-30-30V138h57a30,30,0,0,1,30,30v45Zm87-77a30,30,0,0,1-30-30V77h26a30,30,0,0,1,30,30v29Z" transform="translate(-47 -71)" fill="#c5b8f9" opacity="0.8"/>
        </g>
      </g>
    </g>
    <g id="Group_18983" data-name="Group 18983" transform="translate(-1905 2150.588)">
      <path id="Path_11263" data-name="Path 11263" d="M629.745,366.156a18.14,18.14,0,1,0,1.421,7.039A18.024,18.024,0,0,0,629.745,366.156Z" transform="translate(-595 -355.112)" fill="#fff"/>
      <path id="Path_11262" data-name="Path 11262" d="M728.761,473.822a.807.807,0,0,0,.892.048,52.637,52.637,0,0,1,21.817,0,.806.806,0,0,0,1.147-1.02,13.181,13.181,0,0,0-24.111,0A.8.8,0,0,0,728.761,473.822Z" transform="translate(-722.478 -460.092)" fill="#c6baf8"/>
      <path id="Path_11264" data-name="Path 11264" d="M1038.374,734.164a.806.806,0,0,0-1.068-.737,15.786,15.786,0,0,0-6.175,3.864,18.359,18.359,0,0,0-4.732,9.333.806.806,0,0,0,.917.961,13.179,13.179,0,0,0,11.064-13.008C1038.38,734.442,1038.378,734.307,1038.374,734.164Z" transform="translate(-1007.12 -716.493)" fill="#c6baf8"/>
      <path id="Path_11265" data-name="Path 11265" d="M931.815,688.583a3.343,3.343,0,1,0-3.343,3.343A3.347,3.347,0,0,0,931.815,688.583Z" transform="translate(-910.389 -670.5)" fill="#c6baf8"/>
      <path id="Path_11266" data-name="Path 11266" d="M712.138,737.292a15.784,15.784,0,0,0-6.175-3.864.806.806,0,0,0-1.068.737c0,.144-.007.279-.007.413a13.18,13.18,0,0,0,11.065,13.008.806.806,0,0,0,.917-.961A18.359,18.359,0,0,0,712.138,737.292Z" transform="translate(-699.981 -716.495)" fill="#c6baf8"/>
    </g>
  </g>
</svg>
